<?xml version="1.0" encoding="UTF-8" standalone="no"?>
<!-- Created with Inkscape (http://www.inkscape.org/) -->

<svg
   width="100.08064"
   height="61.066463"
   viewBox="0 0 100.08064 61.066463"
   version="1.1"
   id="svg1"
   xmlns="http://www.w3.org/2000/svg"
   xmlns:svg="http://www.w3.org/2000/svg">
  <defs
     id="defs1" />
  <g
     id="layer1"
     transform="translate(0.08063523)">
    <g
       id="g2732"
       style="display:inline;fill:#ffffff"
       transform="matrix(0.64736832,0,0,0.64736832,-19.523379,-8.8509019)">
      <g
         id="g74132"
         style="fill:#ffffff">
        <g
           id="g71168"
           style="fill:#ffffff">
          <path
             id="path71152"
             style="display:inline;opacity:0.99;fill:#ffffff;stroke-width:0.264583"
             d="m 171.13891,35.105351 c -0.51817,0 -2.35431,5.127852 -4.37183,5.127852 v 1.136365 c 3.46348,3.39591 2.58609,6.124345 -2.07687,15.602665 -1.64897,3.35183 0.14701,10.610695 2.86545,12.651804 l 8.23862,0.01611 c -7.81839,-2.238525 -9.08911,-8.014382 -7.05316,-13.611005 0.84574,-2.32485 3.84622,-6.070249 3.23081,-14.65957 l 0.0212,-6.264217 z m 12.54755,18.99729 c -0.46865,0 -3.04108,5.126302 -4.886,5.126302 l 0.0191,0.915189 5.1e-4,0.07131 c 0.12048,0.0039 1.72475,1.804401 1.73375,2.135787 v 7.258988 h -22.2131 V 54.105225 l -1.12499,0.04393 c -2.38225,2.328678 -13.27402,5.36198 -13.13615,15.461071 v 3.605982 h 10.43037 c -2.00359,6.211716 -9.48036,8.287349 -10.4035,8.287349 l -0.002,1.318266 c 10.26507,0 13.99449,-6.665552 13.99449,-9.605615 h 26.40614 v -3.605982 -7.258988 h -5.1e-4 l 5.1e-4,-2.207101 v -6.039424 z m -28.82511,6.007385 0.0109,9.500195 h -7.14375 c 0,-6.514808 5.00896,-8.599161 7.1329,-9.500195 z" />
          <circle
             style="opacity:0.99;fill:#ffffff;fill-opacity:1;stroke:none;stroke-width:0.299721;stroke-opacity:1"
             id="circle71154"
             cx="182.13953"
             cy="43.408554"
             r="2.3939824" />
          <circle
             style="display:inline;fill:#ffffff;fill-opacity:1;stroke:none;stroke-width:0.431978"
             id="circle71156"
             cx="182.12964"
             cy="49.471642"
             r="2.5" />
          <circle
             style="display:inline;fill:#ffffff;fill-opacity:1;stroke:none;stroke-width:0.431978"
             id="circle71158"
             cx="167.95091"
             cy="78.029053"
             r="2.5" />
          <circle
             style="display:inline;fill:#ffffff;fill-opacity:1;stroke:none;stroke-width:0.431978"
             id="circle71160"
             cx="182.12964"
             cy="43.486511"
             r="2.5" />
          <circle
             style="display:inline;fill:#ffffff;fill-opacity:1;stroke:none;stroke-width:0.431978"
             id="circle71162"
             cx="136.92752"
             cy="77.975899"
             r="2.5" />
          <circle
             style="display:inline;fill:#ffffff;fill-opacity:1;stroke:none;stroke-width:0.431978"
             id="circle71164"
             cx="136.92752"
             cy="84.07579"
             r="2.5" />
          <path
             id="path71166"
             style="display:inline;fill:#ffffff;stroke-width:0.17"
             d="m 140.92628,54.105225 c -0.46865,0 -3.04112,5.126302 -4.886,5.126302 l 0.0191,0.915189 5.1e-4,0.07131 c 0.35249,0.01141 2.04509,2.462881 2.04691,4.066418 v 0.0026 l -5.2e-4,5.303552 h -5.86734 v -7.028511 c 0,-4.538884 -4.45141,-5.416724 -4.45141,-5.416724 h -1.90996 c 0,0 -4.26843,0.890515 -4.26843,5.450849 h 3.44628 c 0,-2.437161 3.55376,-2.471286 3.55376,-0.03412 v 10.636043 c 0,2.437154 -3.55378,2.437154 -3.55378,0 v -2.583822 c 0,-0.48157 -0.7403,-1.02371 -1.14774,-1.02371 h -11.58069 -3.95169 v 3.607532 0.07131 h 5.1e-4 l -5.1e-4,2.2071 v 6.039425 l 0.81907,0.0021 c 0.46865,0 3.04108,-5.126302 4.88601,-5.126302 l -0.0191,-0.91519 -5.1e-4,-0.07131 c -0.12048,-0.0039 -1.72475,-1.804402 -1.73375,-2.135786 v -0.07131 h 9.09816 c 0,4.538878 4.4514,5.416724 4.4514,5.416724 h 1.90997 c 0,0 4.27105,-0.856399 4.27105,-5.416724 h 6.04873 3.63854 v -3.607532 -6.250781 l 5.1e-4,-3.193087 v -6.039424 z m -31.73191,0.05581 -0.81907,0.0021 v 6.039425 l 5.1e-4,2.2071 h -5.1e-4 v 0.186552 3.492293 0.0062 h 15.56701 c 0.42009,0 1.11311,-0.492111 1.11311,-0.804086 V 62.59621 h -12.72843 v -0.186552 c 0.009,-0.331385 1.61327,-2.131845 1.73375,-2.135787 l 5.1e-4,-0.07131 0.0191,-0.91519 c -1.84493,0 -4.41736,-5.126302 -4.88601,-5.126302 z" />
        </g>
        <g
           id="g71150"
           transform="matrix(-1,0,0,1,214.66315,0)"
           style="fill:#ffffff">
          <path
             id="path5144"
             style="display:inline;opacity:0.99;fill:#ffffff;stroke-width:0.264583"
             d="m 171.13891,35.105351 c -0.51817,0 -2.35431,5.127852 -4.37183,5.127852 v 1.136365 c 3.46348,3.39591 2.58609,6.124345 -2.07687,15.602665 -1.64897,3.35183 0.14701,10.610695 2.86545,12.651804 l 8.23862,0.01611 c -7.81839,-2.238525 -9.08911,-8.014382 -7.05316,-13.611005 0.84574,-2.32485 3.84622,-6.070249 3.23081,-14.65957 l 0.0212,-6.264217 z m 12.54755,18.99729 c -0.46865,0 -3.04108,5.126302 -4.886,5.126302 l 0.0191,0.915189 5.1e-4,0.07131 c 0.12048,0.0039 1.72475,1.804401 1.73375,2.135787 v 7.258988 h -22.2131 V 54.105225 l -1.12499,0.04393 c -2.38225,2.328678 -13.27402,5.36198 -13.13615,15.461071 v 3.605982 h 10.43037 c -2.00359,6.211716 -9.48036,8.287349 -10.4035,8.287349 l -0.002,1.318266 c 10.26507,0 13.99449,-6.665552 13.99449,-9.605615 h 26.40614 v -3.605982 -7.258988 h -5.1e-4 l 5.1e-4,-2.207101 v -6.039424 z m -28.82511,6.007385 0.0109,9.500195 h -7.14375 c 0,-6.514808 5.00896,-8.599161 7.1329,-9.500195 z" />
          <circle
             style="opacity:0.99;fill:#ffffff;fill-opacity:1;stroke:none;stroke-width:0.299721;stroke-opacity:1"
             id="path19260"
             cx="182.13953"
             cy="43.408554"
             r="2.3939824" />
          <circle
             style="display:inline;fill:#ffffff;fill-opacity:1;stroke:none;stroke-width:0.431978"
             id="circle70748"
             cx="182.12964"
             cy="49.471642"
             r="2.5" />
          <circle
             style="display:inline;fill:#ffffff;fill-opacity:1;stroke:none;stroke-width:0.431978"
             id="circle70750"
             cx="167.95091"
             cy="78.029053"
             r="2.5" />
          <circle
             style="display:inline;fill:#ffffff;fill-opacity:1;stroke:none;stroke-width:0.431978"
             id="path70123"
             cx="182.12964"
             cy="43.486511"
             r="2.5" />
          <circle
             style="display:inline;fill:#ffffff;fill-opacity:1;stroke:none;stroke-width:0.431978"
             id="circle70752"
             cx="136.92752"
             cy="77.975899"
             r="2.5" />
          <circle
             style="display:inline;fill:#ffffff;fill-opacity:1;stroke:none;stroke-width:0.431978"
             id="circle70746"
             cx="136.92752"
             cy="84.07579"
             r="2.5" />
          <path
             id="path70756"
             style="display:inline;fill:#ffffff;stroke-width:0.17"
             d="m 140.92628,54.105225 c -0.46865,0 -3.04112,5.126302 -4.886,5.126302 l 0.0191,0.915189 5.1e-4,0.07131 c 0.35249,0.01141 2.04509,2.462881 2.04691,4.066418 v 0.0026 l -5.2e-4,5.303552 h -5.86734 v -7.028511 c 0,-4.538884 -4.45141,-5.416724 -4.45141,-5.416724 h -1.90996 c 0,0 -4.26843,0.890515 -4.26843,5.450849 h 3.44628 c 0,-2.437161 3.55376,-2.471286 3.55376,-0.03412 v 10.636043 c 0,2.437154 -3.55378,2.437154 -3.55378,0 v -2.583822 c 0,-0.48157 -0.7403,-1.02371 -1.14774,-1.02371 h -11.58069 -3.95169 v 3.607532 0.07131 h 5.1e-4 l -5.1e-4,2.2071 v 6.039425 l 0.81907,0.0021 c 0.46865,0 3.04108,-5.126302 4.88601,-5.126302 l -0.0191,-0.91519 -5.1e-4,-0.07131 c -0.12048,-0.0039 -1.72475,-1.804402 -1.73375,-2.135786 v -0.07131 h 9.09816 c 0,4.538878 4.4514,5.416724 4.4514,5.416724 h 1.90997 c 0,0 4.27105,-0.856399 4.27105,-5.416724 h 6.04873 3.63854 v -3.607532 -6.250781 l 5.1e-4,-3.193087 v -6.039424 z m -31.73191,0.05581 -0.81907,0.0021 v 6.039425 l 5.1e-4,2.2071 h -5.1e-4 v 0.186552 3.492293 0.0062 h 15.56701 c 0.42009,0 1.11311,-0.492111 1.11311,-0.804086 V 62.59621 h -12.72843 v -0.186552 c 0.009,-0.331385 1.61327,-2.131845 1.73375,-2.135787 l 5.1e-4,-0.07131 0.0191,-0.91519 c -1.84493,0 -4.41736,-5.126302 -4.88601,-5.126302 z" />
        </g>
      </g>
      <text
         xml:space="preserve"
         style="font-weight:300;font-size:19.4028px;font-family:'Open Sans';-inkscape-font-specification:'Open Sans';letter-spacing:4.7625px;fill:#ffffff;fill-opacity:0.996078;stroke:none;stroke-width:0.264583"
         x="44.877476"
         y="107.81297"
         id="text71270"><tspan
           id="tspan71268"
           style="font-size:19.4028px;fill:#ffffff;fill-opacity:0.996078;stroke-width:0.264583"
           x="44.877476"
           y="107.81297"
           dx="0">INSTITUTE</tspan></text>
      <path
         style="fill:#ffffff;fill-opacity:0.996078;stroke:none;stroke-width:0.264583"
         d="m 115.72066,46.725964 47.13317,2.843696 -13.2887,-28.13974 -0.17171,0.06223 12.584,27.310309 -43.97367,-3.792686 z"
         id="path75639" />
      <path
         style="display:inline;fill:#ffffff;fill-opacity:0.996078;stroke:none;stroke-width:0.264583"
         d="m 112.36776,46.541787 c -5.27555,1.350951 -8.58591,0.485677 -10.38782,-1.994693 l -49.365283,4.240844 13.016765,-28.15907 -0.266073,0.0045 -13.741286,28.939538 50.393657,-3.027243 c 3.53888,2.817937 6.98153,2.583235 10.35004,-0.0039 z"
         id="path75641" />
      <path
         id="rect75759"
         style="fill:#ffffff;fill-opacity:0.996078;stroke-width:0.264583"
         d="m 112.03615,42.504392 c 3.10037,-1.39817 7.50815,-2.379164 13.75902,0.99601 v 0.384811 c -4.73309,-2.074744 -10.61523,-2.260949 -13.78768,-1.012504 z" />
      <path
         style="display:inline;fill:#ffffff;fill-opacity:0.996078;stroke:none;stroke-width:0.264583"
         d="m 107.42286,42.32629 0.13956,0.121363 c 5.06406,-3.703613 7.90103,-3.664924 19.35847,-0.423413 7.58434,1.51138 18.40337,4.39917 30.86194,3.906161 l -10.06431,-25.713895 -0.24611,-0.02361 c 0,0 9.32261,23.933366 9.10387,25.007129 0,0 -1.22666,0.04511 -5.84817,-0.13633 -9.14131,-0.358888 -26.3272,-4.20951 -28.05911,-5.084706 -0.51401,-0.259748 -2.42255,-0.790622 -4.63092,-0.790622 -0.4783,-0.0743 -6.91838,-0.827331 -10.61522,3.137923 z"
         id="path75864" />
      <path
         style="display:inline;fill:#ffffff;fill-opacity:0.996078;stroke:none;stroke-width:0.264583"
         d="m 107.55925,40.816011 0.12414,0.11 c 0.19607,-0.731743 5.23149,-2.972518 8.28634,-3.037481 l 4.25288,-0.09044 c 2.00003,-0.04253 8.07624,1.701483 13.29128,3.127921 2.29705,0.628299 10.93726,3.510173 15.99465,3.409192 l 5.54896,-0.110796 -0.29872,-0.843891 -4.80059,0.162319 c -2.39977,0.08114 -7.57232,-0.776951 -10.99963,-2.274517 -5.386,-2.353415 -13.25082,-3.627166 -16.10753,-4.086581 -1.18874,-0.191172 -6.38708,-0.02586 -6.82281,0 -4.10219,0.243462 -7.72531,2.513243 -8.46897,3.634272 z"
         id="path75866" />
      <path
         style="fill:#ffffff;fill-opacity:0.996078;stroke:none;stroke-width:0.264583"
         d="m 153.98789,43.427312 -8.33486,-23.96741 h 0.83833 l 8.28394,23.96741 z"
         id="path75868" />
      <path
         style="display:inline;fill:#ffffff;fill-opacity:0.996078;stroke:none;stroke-width:0.264583"
         d="m 140.11357,40.147814 0.0713,-0.192448 c 2.01889,0.949344 5.16076,1.628725 9.65432,1.983163 l 1.90908,-0.0011 -1.46327,-5.774888 0.14944,-0.0088 2.24682,6.55801 -2.96696,-0.08157 c -3.72654,-0.356391 -6.94619,-1.166476 -9.60073,-2.482367 z"
         id="path75870" />
      <path
         style="fill:#ffffff;fill-opacity:0.996078;stroke:none;stroke-width:0.264583"
         d="m 149.53308,34.763956 -4.88234,-13.467807 0.65875,-0.05846 4.31956,13.49618 z"
         id="path75872" />
      <path
         style="display:inline;fill:#ffffff;fill-opacity:0.996078;stroke:none;stroke-width:0.264583"
         d="m 123.96134,14.777228 -5.3e-4,-0.18309 c 2.00575,0 5.38081,0.144054 6.24193,0.144361 3.11456,0.0011 5.27511,1.116122 5.97766,1.367976 0.0326,0.0117 2.78447,1.347384 3.20093,1.498644 0.65491,0.237864 3.78278,1.223104 5.80798,1.274536 0.46512,0.01181 1.07549,-0.02941 1.07549,-0.02941 l 0.22885,0.760627 -0.75816,0.0043 -0.0599,-0.167908 c 0,0 -1.98803,0.05541 -2.9563,-0.133004 -1.92812,-0.375185 -3.76402,-1.158908 -5.55667,-1.961908 -1.14659,-0.513603 -1.42305,-0.992988 -5.22951,-1.987543 -2.69154,-0.703248 -7.97177,-0.587581 -7.97177,-0.587581 z"
         id="path75912" />
      <path
         style="display:inline;fill:#ffffff;fill-opacity:0.996078;stroke-width:0.264583"
         d="m 107.50703,39.883889 0.23265,-0.01742 c 5.38068,-4.788768 14.23974,-5.274187 19.47044,-3.614765 l 0.0703,-0.116298 c -2.67313,-0.938038 -11.5008,-5.095068 -19.77338,3.748481 z"
         id="path2515" />
      <path
         style="fill:#ffffff;fill-opacity:0.996078;stroke-width:0.264583"
         d="m 130.34148,15.638439 -0.0851,0.15838 c -1.77532,-0.264181 -4.6316,-0.616073 -6.39055,-0.439438 l 0.008,-0.318442 c 2.84467,-0.409482 4.51683,0.218481 6.46808,0.5995 z"
         id="path2613" />
      <path
         style="fill:#ffffff;fill-opacity:0.996078;stroke-width:0.264583"
         d="m 123.96761,14.602894 0.0206,0.786125 c -3.88442,0.65455 -6.13884,0.133737 -15.40444,4.668552 l -0.992,0.0068 -0.0163,-0.383816 c 8.10181,-4.163985 13.00912,-4.981412 16.39216,-5.077661 z"
         id="path2615" />
      <path
         style="display:inline;fill:#ffffff;fill-opacity:0.996078;stroke-width:0.264583"
         d="m 107.61407,20.047411 -0.16526,18.420502 0.27352,0.05195 0.86144,-18.462293 z"
         id="path2617" />
      <path
         style="display:inline;fill:#ffffff;fill-opacity:0.996078;stroke-width:0.264583"
         d="m 106.95733,38.534588 0.24308,0.01947 -0.12135,-18.503404 h -1.02954 c 0.27499,6.144179 0.74166,12.432507 0.90781,18.483934 z"
         id="path2619" />
      <path
         style="display:inline;fill:#ffffff;fill-opacity:0.996078;stroke-width:0.264583"
         d="m 106.04952,20.050654 h 1.02954 l -0.0316,-0.364235 C 90.815307,11.704126 85.854868,15.903725 84.186478,15.630949 l 0.03894,0.177272 c 3.274606,0.426049 7.155112,-2.787015 21.824102,4.242433 z"
         id="path2621" />
      <path
         style="fill:#ffffff;fill-opacity:0.996078;stroke-width:0.264583"
         d="m 98.370849,15.235272 -0.0011,-0.210659 C 86.721916,10.966428 78.197317,17.177094 68.255282,18.82593 l -0.07063,0.581276 0.815141,0.131496 c 2.253884,-0.03029 4.413962,-0.62666 6.015462,-1.207683 17.215909,-6.24592 16.729983,-3.454836 23.355594,-3.095747 z"
         id="path2623" />
      <path
         style="fill:#ffffff;fill-opacity:0.996078;stroke-width:0.264583"
         d="m 68.184651,19.407206 0.815141,0.131496 -8.56471,24.708952 -0.814385,-0.141666 z"
         id="path2625" />
      <path
         style="display:inline;fill:#ffffff;fill-opacity:0.996078;stroke-width:0.264583"
         d="m 60.435082,44.247654 0.262154,-0.756309 c 11.890011,0.270984 16.538939,-2.888099 17.064308,-3.052904 12.348683,-3.873723 25.381496,-5.017987 29.333196,0.333691 l -0.17368,0.131186 c -5.01887,-3.026836 -9.387615,-5.326701 -26.336936,0.365783 -6.131695,2.05935 -12.76455,3.019527 -20.149042,2.978553 z"
         id="path2627" />
      <path
         style="display:inline;fill:#ffffff;fill-opacity:0.996078;stroke-width:0.264583"
         d="m 64.36202,36.246903 -0.191574,-8.67e-4 -2.207067,6.473732 c 4.057212,-0.02534 8.497567,-0.554032 12.600582,-2.601683 l -0.123949,-0.120493 c -2.063914,0.766247 -3.837129,1.553866 -11.569285,1.903401 z"
         id="path2629" />
      <path
         style="display:inline;fill:#ffffff;fill-opacity:0.996078;stroke-width:0.264583"
         d="m 72.96596,39.429004 0.157787,0.09791 c 3.692439,-1.695416 10.640005,-4.522423 19.644196,-5.548373 l -0.05268,-0.160917 C 82.184086,33.9032 77.994131,36.855576 72.96596,39.429004 Z"
         id="path2631" />
      <path
         style="display:inline;fill:#ffffff;fill-opacity:0.996078;stroke-width:0.264583"
         d="m 87.195087,36.224411 0.0263,0.120819 c 4.151562,-1.254816 12.188272,-2.528433 19.657703,3.557241 l 0.22166,-0.05907 c -6.54373,-6.723279 -13.80603,-6.363283 -19.905663,-3.61899 z"
         id="path2633" />
      <path
         style="display:inline;fill:#ffffff;fill-opacity:0.996078;stroke-width:0.264583"
         d="m 107.14543,42.589434 0.13045,-0.22288 c -2.5344,-2.809047 -7.04795,-3.249455 -8.73235,-3.238846 -0.906736,0.0057 -3.109998,-0.09778 -5.162438,0.479272 -3.557175,1.000114 -12.333112,3.2074 -23.330811,4.936441 -0.655172,0.103005 -11.263649,1.014385 -12.170863,0.587357 l 9.561973,-25.674362 -0.33646,-0.03876 -10.301761,26.403211 c 2.312022,0.213143 7.328895,0.07237 13.306849,-0.633151 9.991023,-1.179142 21.420323,-4.400285 26.013291,-5.342028 5.59291,-1.14677 9.13935,0.926123 11.02212,2.743746 z"
         id="path2635" />
    </g>
  </g>
</svg>
